<svg xmlns="http://www.w3.org/2000/svg" viewBox="0 0 1000 760"><rect width="1000" height="760" fill="#f6efe3"/><path d="M0 660Q240 610 480 672T1000 635V760H0Z" fill="#e7cda2"/><g stroke="#2d241e" stroke-width="5" stroke-linejoin="round" stroke-linecap="round"><path d="M80 112H922V654H80Z" fill="#fff8ec"/><path d="M80 112H922V290H80Z" fill="#bf5a32"/><path d="M498 112V654M80 290H922" fill="none"/><circle cx="725" cy="201" r="71" fill="#e9b85e"/><path d="M80 290 498 112V654L80 510Z" fill="#e9b85e" opacity=".32"/><path d="M180 454H435V608H180Z" fill="#8a5d3b"/><path d="M214 420H401V454H214Z" fill="#fff8ec"/><path d="M630 458H856V609H630Z" fill="#8a5d3b"/><path d="M664 424H822V458H664Z" fill="#fff8ec"/><path d="M282 455V368Q282 320 326 320Q370 320 370 368V455" fill="#8ea07b"/><circle cx="326" cy="347" r="18" fill="#bf5a32"/><path d="M700 424V355M786 424V355"/><path d="M680 355H806V424H680Z" fill="#8ea07b"/><text x="308" y="230" fill="#fff8ec" stroke="none" font-family="Georgia,serif" font-size="64" font-style="italic">slow mornings</text></g><text x="54" y="62" fill="#2d241e" font-family="Arial,sans-serif" font-weight="700" font-size="18" letter-spacing="4">AMBER ROOM / MORNING LIGHT</text><circle cx="944" cy="54" r="17" fill="#bf5a32"/></svg>